{
  "accessors": [
    {
      "bufferView": 3,
      "componentType": 5126,
      "count": 4005,
      "max": [
        0.31122708320617676,
        0.7621423602104187,
        0.06537503004074097
      ],
      "min": [
        -0.31122708320617676,
        -0.19574791193008423,
        -0.03672182559967041
      ],
      "type": "VEC3"
    },
    {
      "bufferView": 3,
      "byteOffset": 48060,
      "componentType": 5126,
      "count": 4005,
      "max": [
        0.996649444103241,
        0.9842129349708557,
        0.9999976754188538
      ],
      "min": [
        -0.996649444103241,
        -0.9998377561569214,
        -1.0
      ],
      "type": "VEC3"
    },
    {
      "bufferView": 2,
      "componentType": 5126,
      "count": 4005,
      "max": [
        0.9834691286087036,
        0.9846864938735962
      ],
      "min": [
        0.014808237552642822,
        0.010478198528289795
      ],
      "type": "VEC2"
    },
    {
      "bufferView": 1,
      "componentType": 5125,
      "count": 22152,
      "type": "SCALAR"
    },
    {
      "bufferView": 5,
      "componentType": 5126,
      "count": 41,
      "max": [
        99.99999237060547,
        1.4682024717330933,
        6.050068378448486,
        0.0,
        0.4955703318119049,
        99.99998474121094,
        1.4682022333145142,
        0.0,
        6.055715560913086,
        0.48244911432266235,
        99.99998474121094,
        0.0,
        0.20730100572109222,
        1.1617329120635986,
        0.7761533260345459,
        1.0
      ],
      "min": [
        -0.050614967942237854,
        -1.4682024717330933,
        -6.050068378448486,
        0.0,
        -0.4955711364746094,
        -6.0500688552856445,
        -0.7778043150901794,
        0.0,
        -6.0557146072387695,
        -0.4979642629623413,
        -0.01350213959813118,
        0.0,
        -0.2073010802268982,
        -3.3467071056365967,
        -0.9507994651794434,
        1.0
      ],
      "type": "MAT4"
    },
    {
      "bufferView": 0,
      "componentType": 5123,
      "count": 4005,
      "type": "VEC4"
    },
    {
      "bufferView": 4,
      "componentType": 5126,
      "count": 4005,
      "max": [
        1.0,
        0.49542656540870667,
        0.26071280241012573,
        0.19792650640010834
      ],
      "min": [
        0.2803769111633301,
        0.0,
        0.0,
        0.0
      ],
      "type": "VEC4"
    }
  ],
  "asset": {
    "extras": {
      "author": "SleepyPineapple (https://sketchfab.com/SleepyPineapple)",
      "license": "CC-BY-4.0 (http://creativecommons.org/licenses/by/4.0/)",
      "source": "https://sketchfab.com/3d-models/splatoon-squid-81bb2d9b6c66408fa10e59b85eafad05",
      "title": "Splatoon Squid"
    },
    "generator": "Sketchfab-15.55.0",
    "version": "2.0"
  },
  "bufferViews": [
    {
      "buffer": 0,
      "byteLength": 32040,
      "byteStride": 8,
      "name": "shortBufferViews",
      "target": 34962
    },
    {
      "buffer": 0,
      "byteLength": 88608,
      "byteOffset": 32040,
      "name": "floatBufferViews",
      "target": 34963
    },
    {
      "buffer": 0,
      "byteLength": 32040,
      "byteOffset": 120648,
      "byteStride": 8,
      "name": "floatBufferViews",
      "target": 34962
    },
    {
      "buffer": 0,
      "byteLength": 96120,
      "byteOffset": 152688,
      "byteStride": 12,
      "name": "floatBufferViews",
      "target": 34962
    },
    {
      "buffer": 0,
      "byteLength": 64080,
      "byteOffset": 248808,
      "byteStride": 16,
      "name": "floatBufferViews",
      "target": 34962
    },
    {
      "buffer": 0,
      "byteLength": 2624,
      "byteOffset": 312888,
      "name": "floatBufferViews"
    }
  ],
  "buffers": [
    {
      "byteLength": 315512,
      "uri": "scene.bin"
    }
  ],
  "extensionsUsed": [
    "KHR_materials_emissive_strength"
  ],
  "images": [
    {
      "uri": "textures/Material.003_baseColor.png"
    }
  ],
  "materials": [
    {
      "doubleSided": true,
      "extensions": {
        "KHR_materials_emissive_strength": {
          "emissiveStrength": 1.1428606258609548
        }
      },
      "name": "Material.003",
      "pbrMetallicRoughness": {
        "baseColorTexture": {
          "index": 0
        },
        "metallicFactor": 0.0,
        "roughnessFactor": 0.06285428679401694
      }
    }
  ],
  "meshes": [
    {
      "name": "Cylinder_Material.003_0",
      "primitives": [
        {
          "attributes": {
            "JOINTS_0": 5,
            "NORMAL": 1,
            "POSITION": 0,
            "TEXCOORD_0": 2,
            "WEIGHTS_0": 6
          },
          "indices": 3,
          "material": 0,
          "mode": 4
        }
      ]
    }
  ],
  "nodes": [
    {
      "children": [
        1
      ],
      "matrix": [
        0.7137022018432617,
        0.0,
        0.0,
        0.0,
        0.0,
        1.58473723442412e-16,
        -0.7137022018432617,
        0.0,
        0.0,
        0.7137022018432617,
        1.58473723442412e-16,
        0.0,
        0.0,
        0.0,
        0.0,
        1.0
      ],
      "name": "Sketchfab_model"
    },
    {
      "children": [
        2
      ],
      "matrix": [
        0.009999999776482582,
        0.0,
        0.0,
        0.0,
        0.0,
        0.0,
        0.009999999776482582,
        0.0,
        0.0,
        -0.009999999776482582,
        0.0,
        0.0,
        0.0,
        0.0,
        0.0,
        1.0
      ],
      "name": "08013aebee6045218811712406395e82.fbx"
    },
    {
      "children": [
        3
      ],
      "name": "RootNode"
    },
    {
      "children": [
        4
      ],
      "matrix": [
        16.513389587402344,
        2.768288912044535e-22,
        6.556588827115239e-22,
        0.0,
        6.556589278126663e-22,
        -2.6903726506415845e-06,
        -16.513389587402127,
        0.0,
        -2.7682878438405915e-22,
        16.513389587402127,
        -2.6903726506415845e-06,
        0.0,
        7.459247419229226e-17,
        20.359493255615234,
        0.21227151155471802,
        1.0
      ],
      "name": "Armature"
    },
    {
      "children": [
        5,
        7,
        6
      ],
      "name": "Object_4"
    },
    {
      "children": [
        8
      ],
      "name": "_rootJoint"
    },
    {
      "matrix": [
        99.99998870377226,
        4.113975936741434e-14,
        9.228895994856448e-13,
        0.0,
        -9.228895573167315e-13,
        -3.261483356811228e-05,
        99.99998558842188,
        0.0,
        4.1140059085306236e-14,
        -99.9999855898774,
        -3.2614833568586995e-05,
        0.0,
        -4.5154072809364815e-15,
        27.86756634105997,
        0.21227150836102038,
        1.0
      ],
      "name": "Object_6"
    },
    {
      "mesh": 0,
      "name": "Object_7",
      "skin": 0
    },
    {
      "children": [
        9,
        12,
        15,
        18,
        21,
        24,
        27,
        30,
        33,
        36,
        42
      ],
      "name": "Root_01",
      "rotation": [
        0.7002147436141968,
        8.510735938216385e-08,
        8.347208080294877e-08,
        0.7139322757720947
      ],
      "scale": [
        1.0,
        0.9999999403953552,
        0.9999999403953552
      ],
      "translation": [
        -7.703719777548943e-34,
        -1.734723475976807e-18,
        0.009509436786174774
      ]
    },
    {
      "children": [
        10
      ],
      "name": "Bone 2_02",
      "rotation": [
        -0.024571720510721207,
        -2.3834660112243e-07,
        2.3977399977477684e-15,
        0.9996980428695679
      ],
      "translation": [
        4.408334269590539e-16,
        0.9926685690879822,
        -1.8917489796876907e-09
      ]
    },
    {
      "children": [
        11
      ],
      "name": "Bone 3_03",
      "rotation": [
        -0.004412305541336536,
        3.163576790194745e-15,
        1.0519751736381977e-09,
        0.9999902844429016
      ],
      "scale": [
        1.0,
        0.9999999403953552,
        0.9999999403953552
      ],
      "translation": [
        -1.5452100184240244e-15,
        1.1180427074432373,
        -7.450580596923828e-09
      ]
    },
    {
      "name": "Bone 3_end_029",
      "rotation": [
        -6.938893903907228e-18,
        1.1479437019748901e-41,
        -1.6543612251060553e-24,
        1.0
      ],
      "translation": [
        -1.3234889800848443e-23,
        1.239866852760315,
        -2.7755575615628914e-17
      ]
    },
    {
      "children": [
        13
      ],
      "name": "Small tentacle 1_L_04",
      "rotation": [
        0.707560658454895,
        0.016084667295217514,
        -0.7047120332717896,
        0.049800820648670197
      ],
      "scale": [
        1.0000234842300415,
        1.0000001192092896,
        1.0000061988830566
      ],
      "translation": [
        0.24322985112667084,
        -0.09190654754638672,
        0.10194327682256699
      ]
    },
    {
      "children": [
        14
      ],
      "name": "Small tentacle 2_L_05",
      "rotation": [
        0.07653536647558212,
        -0.0005838709184899926,
        -0.05932358279824257,
        0.99530029296875
      ],
      "scale": [
        0.9999999403953552,
        1.0000001192092896,
        1.0
      ],
      "translation": [
        1.1641532182693481e-10,
        0.2613990902900696,
        -5.152514859219082e-09
      ]
    },
    {
      "name": "Small tentacle 2_L_end_030",
      "rotation": [
        3.604204599905853e-18,
        -3.4813054132151744e-19,
        -3.469446951953614e-18,
        1.0
      ],
      "translation": [
        -1.3877787807814457e-17,
        0.25876301527023315,
        2.7755575615628914e-17
      ]
    },
    {
      "children": [
        16
      ],
      "name": "Small tentacle 3_L_06",
      "rotation": [
        0.707648515701294,
        0.011679555289447308,
        -0.7043779492378235,
        0.05430333688855171
      ],
      "scale": [
        1.0000101327896118,
        1.0000001192092896,
        1.0000041723251343
      ],
      "translation": [
        0.663702130317688,
        -0.006095230579376221,
        0.04359760880470276
      ]
    },
    {
      "children": [
        17
      ],
      "name": "Small tentacle 4_L_07",
      "rotation": [
        0.07653660327196121,
        -0.004595498088747263,
        -0.01969716139137745,
        0.9968616962432861
      ],
      "translation": [
        4.656612873077393e-10,
        0.2611788511276245,
        -1.035198238241719e-08
      ]
    },
    {
      "name": "Small tentacle 4_L_end_031",
      "rotation": [
        -9.848677070852364e-19,
        -1.0693790959085542e-19,
        -1.0531969802312948e-37,
        1.0
      ],
      "translation": [
        1.3877787807814457e-17,
        0.25816333293914795,
        0.0
      ]
    },
    {
      "children": [
        19
      ],
      "name": "Small tentacle 5_L_08",
      "rotation": [
        -0.7048956155776978,
        -0.0635187178850174,
        0.706457257270813,
        -0.0024094320833683014
      ],
      "scale": [
        1.0000109672546387,
        1.0000003576278687,
        1.0000094175338745
      ],
      "translation": [
        0.2432299256324768,
        -0.08708226680755615,
        -0.14669707417488098
      ]
    },
    {
      "children": [
        20
      ],
      "name": "Small tentacle 6_L_09",
      "rotation": [
        0.07653490453958511,
        0.0005791573785245419,
        0.05932506546378136,
        0.9953003525733948
      ],
      "scale": [
        1.0,
        0.9999998807907104,
        1.0
      ],
      "translation": [
        1.955777406692505e-08,
        0.26139914989471436,
        -1.2857071851613e-08
      ]
    },
    {
      "name": "Small tentacle 6_L_end_032",
      "rotation": [
        -1.9916920963500805e-18,
        7.030373462210693e-20,
        3.469446951953614e-18,
        1.0
      ],
      "translation": [
        -1.3877787807814457e-17,
        0.25876301527023315,
        -2.7755575615628914e-17
      ]
    },
    {
      "children": [
        22
      ],
      "name": "Small tentacle 7_L_010",
      "rotation": [
        -0.7044723033905029,
        -0.06802171468734741,
        0.7064615488052368,
        0.0019865971989929676
      ],
      "scale": [
        1.0000035762786865,
        1.0000001192092896,
        1.0000040531158447
      ],
      "translation": [
        0.663702130317688,
        -0.00359881529584527,
        -0.08506648242473602
      ]
    },
    {
      "children": [
        23
      ],
      "name": "Small tentacle 8_L_011",
      "rotation": [
        0.07653656601905823,
        0.004599293228238821,
        0.019697783514857292,
        0.9968615770339966
      ],
      "scale": [
        1.0000001192092896,
        1.0000001192092896,
        1.0
      ],
      "translation": [
        6.984919309616089e-09,
        0.2611789405345917,
        -9.197185590892332e-08
      ]
    },
    {
      "name": "Small tentacle 8_L_end_033",
      "rotation": [
        6.627768114468883e-19,
        -7.623296525288703e-20,
        5.05254416374499e-38,
        1.0
      ],
      "translation": [
        0.0,
        0.25816333293914795,
        2.220446049250313e-16
      ]
    },
    {
      "children": [
        25
      ],
      "name": "Small tentacle 1_R_012",
      "rotation": [
        0.7075605392456055,
        -0.016084697097539902,
        0.7047122716903687,
        0.049800798296928406
      ],
      "scale": [
        1.0000234842300415,
        1.0,
        1.0000061988830566
      ],
      "translation": [
        -0.2432299107313156,
        -0.09190654754638672,
        0.10194315761327744
      ]
    },
    {
      "children": [
        26
      ],
      "name": "Small tentacle 2_R_013",
      "rotation": [
        0.07653535157442093,
        0.0005838570068590343,
        0.059323593974113464,
        0.99530029296875
      ],
      "scale": [
        0.9999999403953552,
        1.0,
        1.0
      ],
      "translation": [
        1.862645149230957e-09,
        0.2613990902900696,
        -4.223375071887858e-08
      ]
    },
    {
      "name": "Small tentacle 2_R_end_034",
      "rotation": [
        2.5028235404588473e-18,
        4.573977915173222e-20,
        -6.938893903907228e-18,
        1.0
      ],
      "translation": [
        0.0,
        0.25876301527023315,
        2.7755575615628914e-17
      ]
    },
    {
      "children": [
        28
      ],
      "name": "Small tentacle 3_R_014",
      "rotation": [
        0.707648515701294,
        -0.011679555289447308,
        0.7043779492378235,
        0.05430333688855171
      ],
      "scale": [
        1.0000094175338745,
        1.0000001192092896,
        1.0000039339065552
      ],
      "translation": [
        -0.663702130317688,
        -0.006095229648053646,
        0.04359729588031769
      ]
    },
    {
      "children": [
        29
      ],
      "name": "Small tentacle 4_R_015",
      "rotation": [
        0.0765366330742836,
        0.0045954822562634945,
        0.019697176292538643,
        0.9968616962432861
      ],
      "scale": [
        1.0000001192092896,
        1.0,
        1.0
      ],
      "translation": [
        8.847564458847046e-09,
        0.2611788511276245,
        5.835784122609766e-08
      ]
    },
    {
      "name": "Small tentacle 4_R_end_035",
      "rotation": [
        -3.5534132287532595e-18,
        9.751466805265133e-20,
        3.469446951953614e-18,
        1.0
      ],
      "translation": [
        0.0,
        0.25816333293914795,
        0.0
      ]
    },
    {
      "children": [
        31
      ],
      "name": "Small tentacle 5_R_016",
      "rotation": [
        0.7048953771591187,
        -0.06351934373378754,
        0.7064574360847473,
        0.0024101524613797665
      ],
      "scale": [
        1.0000108480453491,
        1.000000238418579,
        1.0000094175338745
      ],
      "translation": [
        -0.24322986602783203,
        -0.08708226680755615,
        -0.14669719338417053
      ]
    },
    {
      "children": [
        32
      ],
      "name": "Small tentacle 6_R_017",
      "rotation": [
        0.07653491944074631,
        -0.0005791602889075875,
        -0.059325043112039566,
        0.9953003525733948
      ],
      "scale": [
        1.0,
        0.9999998807907104,
        1.0
      ],
      "translation": [
        -1.5366822481155396e-08,
        0.26139914989471436,
        3.763261702260934e-08
      ]
    },
    {
      "name": "Small tentacle 6_R_end_036",
      "rotation": [
        1.0471974206023322e-17,
        -1.7364175418713157e-19,
        1.8183718812531822e-36,
        1.0
      ],
      "translation": [
        2.7755575615628914e-17,
        0.25876301527023315,
        2.7755575615628914e-17
      ]
    },
    {
      "children": [
        34
      ],
      "name": "Small tentacle 7_R_018",
      "rotation": [
        0.7044722437858582,
        -0.06802251189947128,
        0.7064615488052368,
        -0.0019860502798110247
      ],
      "scale": [
        1.0000040531158447,
        1.000000238418579,
        1.000004768371582
      ],
      "translation": [
        -0.663702130317688,
        -0.003598808776587248,
        -0.08506681770086288
      ]
    },
    {
      "children": [
        35
      ],
      "name": "Small tentacle 8_R_019",
      "rotation": [
        0.07653652131557465,
        -0.004599325824528933,
        -0.019697777926921844,
        0.9968615770339966
      ],
      "scale": [
        1.0,
        0.9999998807907104,
        1.0
      ],
      "translation": [
        2.7939677238464355e-09,
        0.2611789107322693,
        -5.020626758778235e-08
      ]
    },
    {
      "name": "Small tentacle 8_R_end_037",
      "rotation": [
        4.068802171474837e-18,
        -1.8634724839594607e-20,
        -6.938893903907228e-18,
        1.0
      ],
      "translation": [
        0.0,
        0.25816333293914795,
        0.0
      ]
    },
    {
      "children": [
        37
      ],
      "name": "Tentacle 1_L_00",
      "rotation": [
        0.7009420394897461,
        0.07955071330070496,
        0.7026180624961853,
        -0.09316599369049072
      ],
      "scale": [
        0.9999960064888,
        0.9999998211860657,
        0.9999998807907104
      ],
      "translation": [
        0.6457499265670776,
        0.09570693969726563,
        -0.02291150577366352
      ]
    },
    {
      "children": [
        38
      ],
      "name": "Tentacle 2_L_020",
      "rotation": [
        -0.056337300688028336,
        5.006349965697154e-07,
        -5.4348163303075125e-08,
        0.9984118938446045
      ],
      "scale": [
        1.0,
        0.9999999403953552,
        0.9999999403953552
      ],
      "translation": [
        -1.6614620790278423e-10,
        0.49052441120147705,
        -1.5728335966969098e-08
      ]
    },
    {
      "children": [
        39
      ],
      "name": "Tentacle 3_L_021",
      "rotation": [
        -0.04451350122690201,
        -2.0408964473972446e-07,
        -7.226660869719126e-08,
        0.9990088939666748
      ],
      "translation": [
        -2.0244783627276774e-10,
        0.5358299016952515,
        -3.0605832535002264e-08
      ]
    },
    {
      "children": [
        40
      ],
      "name": "Tentacle 4_L_022",
      "rotation": [
        -0.05019935220479965,
        -9.845985186984763e-05,
        -0.005351270083338022,
        0.9987248778343201
      ],
      "translation": [
        9.520846333543886e-10,
        0.5958992838859558,
        -1.1141821687488118e-08
      ]
    },
    {
      "children": [
        41
      ],
      "name": "Tentacle 5_L_023",
      "rotation": [
        -0.03574914112687111,
        -5.085311840957729e-06,
        0.04649806767702103,
        0.9982784986495972
      ],
      "scale": [
        1.0,
        0.9999999403953552,
        1.0
      ],
      "translation": [
        2.153683453798294e-09,
        0.5786767601966858,
        5.441688699647784e-08
      ]
    },
    {
      "name": "Tentacle 5_L_end_038",
      "rotation": [
        -1.4433441421213278e-17,
        2.168404344971009e-18,
        1.3877787807814457e-17,
        1.0
      ],
      "translation": [
        6.938893903907228e-18,
        0.33880099654197693,
        -1.1102230246251565e-16
      ]
    },
    {
      "children": [
        43
      ],
      "name": "Tentacle 1_R_024",
      "rotation": [
        -0.7009421586990356,
        0.07955093681812286,
        0.7026178240776062,
        0.09316617250442505
      ],
      "scale": [
        0.9999962449073792,
        0.9999997615814209,
        0.9999998807907104
      ],
      "translation": [
        -0.6457499265670776,
        0.09570693224668503,
        -0.022911813110113144
      ]
    },
    {
      "children": [
        44
      ],
      "name": "Tentacle 2_R_025",
      "rotation": [
        -0.05633728578686714,
        -5.153396500645613e-07,
        6.284647469101401e-08,
        0.9984118938446045
      ],
      "translation": [
        -5.712905704058358e-10,
        0.4905244708061218,
        4.3889556877729774e-08
      ]
    },
    {
      "children": [
        45
      ],
      "name": "Tentacle 3_R_026",
      "rotation": [
        -0.044513504952192307,
        2.0408965895057918e-07,
        7.226658738090919e-08,
        0.9990088939666748
      ],
      "translation": [
        2.06475192499056e-09,
        0.5358299016952515,
        -9.857488691977778e-08
      ]
    },
    {
      "children": [
        46
      ],
      "name": "Tentacle 4_R_027",
      "rotation": [
        -0.05019935220479965,
        9.846002649283037e-05,
        0.005351268220692873,
        0.9987248778343201
      ],
      "translation": [
        -9.52255163610971e-10,
        0.5958991646766663,
        -1.222424828029034e-08
      ]
    },
    {
      "children": [
        47
      ],
      "name": "Tentacle 5_R_028",
      "rotation": [
        -0.03574913740158081,
        5.082613370177569e-06,
        -0.046498049050569534,
        0.9982784986495972
      ],
      "scale": [
        1.0,
        0.9999999403953552,
        1.0
      ],
      "translation": [
        -2.473825588822365e-10,
        0.5786770582199097,
        6.837990440544672e-08
      ]
    },
    {
      "name": "Tentacle 5_R_end_039",
      "rotation": [
        3.808260130855334e-18,
        8.673617379884035e-19,
        6.938893903907228e-18,
        1.0
      ],
      "translation": [
        1.3877787807814457e-17,
        0.33880099654197693,
        0.0
      ]
    }
  ],
  "samplers": [
    {
      "magFilter": 9729,
      "minFilter": 9987,
      "wrapS": 10497,
      "wrapT": 10497
    }
  ],
  "scene": 0,
  "scenes": [
    {
      "name": "Sketchfab_Scene",
      "nodes": [
        0
      ]
    }
  ],
  "skins": [
    {
      "inverseBindMatrices": 4,
      "joints": [
        5,
        8,
        9,
        10,
        11,
        12,
        13,
        14,
        15,
        16,
        17,
        18,
        19,
        20,
        21,
        22,
        23,
        24,
        25,
        26,
        27,
        28,
        29,
        30,
        31,
        32,
        33,
        34,
        35,
        36,
        37,
        38,
        39,
        40,
        41,
        42,
        43,
        44,
        45,
        46,
        47
      ],
      "skeleton": 5
    }
  ],
  "textures": [
    {
      "sampler": 0,
      "source": 0
    }
  ]
}
