{
  "accessors": [
    {
      "bufferView": 2,
      "componentType": 5126,
      "count": 1888,
      "max": [
        -30.779499053955078,
        -13.064499855041504,
        9.57798957824707
      ],
      "min": [
        -31.5939998626709,
        -13.82229995727539,
        8.376489639282227
      ],
      "type": "VEC3"
    },
    {
      "bufferView": 2,
      "byteOffset": 22656,
      "componentType": 5126,
      "count": 1888,
      "max": [
        0.9998760223388672,
        0.9999690055847168,
        0.9999380111694336
      ],
      "min": [
        -1.0,
        -0.9996901750564575,
        -0.9999690055847168
      ],
      "type": "VEC3"
    },
    {
      "bufferView": 1,
      "componentType": 5126,
      "count": 1888,
      "max": [
        0.9949820041656494,
        0.9693629741668701
      ],
      "min": [
        0.01647699996829033,
        0.0052970098331570625
      ],
      "type": "VEC2"
    },
    {
      "bufferView": 0,
      "componentType": 5125,
      "count": 10842,
      "type": "SCALAR"
    }
  ],
  "asset": {
    "extras": {
      "author": "Bittergiggle Playz [OFFICIAL] (https://sketchfab.com/Bittergiggle_Playz)",
      "license": "CC-BY-4.0 (http://creativecommons.org/licenses/by/4.0/)",
      "source": "https://sketchfab.com/3d-models/uzi-plush-7373bc124ebb468084f5abfb0abc6876",
      "title": "Uzi Plush"
    },
    "generator": "Sketchfab-16.16.0",
    "version": "2.0"
  },
  "bufferViews": [
    {
      "buffer": 0,
      "byteLength": 43368,
      "name": "floatBufferViews",
      "target": 34963
    },
    {
      "buffer": 0,
      "byteLength": 15104,
      "byteOffset": 43368,
      "byteStride": 8,
      "name": "floatBufferViews",
      "target": 34962
    },
    {
      "buffer": 0,
      "byteLength": 45312,
      "byteOffset": 58472,
      "byteStride": 12,
      "name": "floatBufferViews",
      "target": 34962
    }
  ],
  "buffers": [
    {
      "byteLength": 103784,
      "uri": "scene.bin"
    }
  ],
  "images": [
    {
      "uri": "textures/Handle1Mtl_baseColor.png"
    }
  ],
  "materials": [
    {
      "doubleSided": true,
      "name": "Handle1Mtl",
      "pbrMetallicRoughness": {
        "baseColorTexture": {
          "index": 0
        },
        "metallicFactor": 0.0,
        "roughnessFactor": 0.6
      }
    }
  ],
  "meshes": [
    {
      "name": "Object_0",
      "primitives": [
        {
          "attributes": {
            "NORMAL": 1,
            "POSITION": 0,
            "TEXCOORD_0": 2
          },
          "indices": 3,
          "material": 0,
          "mode": 4
        }
      ]
    }
  ],
  "nodes": [
    {
      "children": [
        1
      ],
      "matrix": [
        1.0,
        0.0,
        0.0,
        0.0,
        0.0,
        2.220446049250313e-16,
        -1.0,
        0.0,
        0.0,
        1.0,
        2.220446049250313e-16,
        0.0,
        0.0,
        0.0,
        0.0,
        1.0
      ],
      "name": "Sketchfab_model"
    },
    {
      "children": [
        2
      ],
      "name": "Uzi Plush.obj.cleaner.materialmerger.gles"
    },
    {
      "mesh": 0,
      "name": "Object_2"
    }
  ],
  "samplers": [
    {
      "magFilter": 9729,
      "minFilter": 9987,
      "wrapS": 10497,
      "wrapT": 10497
    }
  ],
  "scene": 0,
  "scenes": [
    {
      "name": "Sketchfab_Scene",
      "nodes": [
        0
      ]
    }
  ],
  "textures": [
    {
      "sampler": 0,
      "source": 0
    }
  ]
}
